# xmcd
#
# Track frame offsets:
#	150
#	11803
#	22172
#	36559
#	45915
#	59962
#	72964
#	84208
#	99104
#	107383
#	119908
#	131557
#
# Disc length: 1922 seconds
#
# Revision: 0
# Processed by: cddbd v1.5.2PL0 Copyright (c) Steve Scherf et al.
# Submitted via: audiograbber 1.83.01
#
DISCID=a407800c
DTITLE=Roger Talley - Timeless Piano Classics
DYEAR=2015
DGENRE=Gospel
TTITLE0=This is My Father's World
TTITLE1=Now I Belong to Jesus
TTITLE2=Tell Me the Story of Jesus - I Love to Tell the Story
TTITLE3=Everybody Ought to Know
TTITLE4=God Will Take Care of You - God Leads Us Along
TTITLE5=On a Hallowed Hill - Tennessee Waltz
TTITLE6=Tis So Sweet
TTITLE7=Savior Like a Shepherd Lead Us - He Leadeth Me
TTITLE8=Since Jesus Came Into My Heart
TTITLE9=Fairest Lord Jesus
TTITLE10=Does Jesus Care
TTITLE11=Sweet Hour of Prayer
EXTD=
EXTT0=
EXTT1=
EXTT2=
EXTT3=
EXTT4=
EXTT5=
EXTT6=
EXTT7=
EXTT8=
EXTT9=
EXTT10=
EXTT11=
PLAYORDER=
